<svg xmlns="http://www.w3.org/2000/svg" viewBox="0 0 555.63 272.1">
  <title>clouds</title>
  <rect x="0.03" width="555.6" height="272.1" style="fill: #54c5d0"/>
  <g>
    <path d="M400,74.8a15,15,0,0,0-14.6-13.7,13.61,13.61,0,0,0-2.1.2,33.2,33.2,0,0,0-6.8-23,32.11,32.11,0,0,0-19.2-11.7,30.7,30.7,0,0,0-23.5,5.2,32,32,0,0,0-8.5,8.7,17.49,17.49,0,0,0-1.6,2.7c-0.3.4-1.1,2.2-1.2,2.3s-0.5-.1-0.6-0.1a20,20,0,0,0-6.9,0,23,23,0,0,0-17.3,13.8,23.7,23.7,0,0,0,2.7,22.6,22.77,22.77,0,0,0,17.1,9.4h66c1.1,0,2.3,0,3.4-.1a15.09,15.09,0,0,0,9.9-5.2A15.41,15.41,0,0,0,400,74.8Z" transform="translate(0.03 0)" style="fill: #54c5d0"/>
    <path d="M400,74.8a15,15,0,0,0-14.6-13.7,13.61,13.61,0,0,0-2.1.2,33.2,33.2,0,0,0-6.8-23,32.11,32.11,0,0,0-19.2-11.7,30.7,30.7,0,0,0-23.5,5.2,32,32,0,0,0-8.5,8.7,17.49,17.49,0,0,0-1.6,2.7c-0.3.4-1.1,2.2-1.2,2.3s-0.5-.1-0.6-0.1a20,20,0,0,0-6.9,0,23,23,0,0,0-17.3,13.8,23.7,23.7,0,0,0,2.7,22.6,22.77,22.77,0,0,0,17.1,9.4h66c1.1,0,2.3,0,3.4-.1a15.09,15.09,0,0,0,9.9-5.2A15.41,15.41,0,0,0,400,74.8Z" transform="translate(0.03 0)" style="fill: #fff;fill-opacity: 0.05999999865889549"/>
  </g>
  <g>
    <path d="M273.2,134.4c-1.4-16.9-15.9-30.4-32.4-30.4a34.31,34.31,0,0,0-4.7.4,73.82,73.82,0,0,0-15.1-51,70.52,70.52,0,0,0-42.6-25.9,68.62,68.62,0,0,0-52.2,11.4,74.63,74.63,0,0,0-19,19.4c-1.2,1.8-2.4,3.9-3.5,5.9-0.6.8-2.4,4.9-2.7,5.1-0.4,0-1-.2-1.4-0.2a49.07,49.07,0,0,0-15.3,0C67.4,71.8,52.7,83.6,45.9,99.7a52.69,52.69,0,0,0,5.9,50.2,50.19,50.19,0,0,0,37.9,20.8H236.2c2.4,0,5.1,0,7.5-.2A32.86,32.86,0,0,0,273.2,134.4Z" transform="translate(0.03 0)" style="fill: #54c5d0"/>
    <path d="M273.2,134.4c-1.4-16.9-15.9-30.4-32.4-30.4a34.31,34.31,0,0,0-4.7.4,73.82,73.82,0,0,0-15.1-51,70.52,70.52,0,0,0-42.6-25.9,68.62,68.62,0,0,0-52.2,11.4,74.63,74.63,0,0,0-19,19.4c-1.2,1.8-2.4,3.9-3.5,5.9-0.6.8-2.4,4.9-2.7,5.1-0.4,0-1-.2-1.4-0.2a49.07,49.07,0,0,0-15.3,0C67.4,71.8,52.7,83.6,45.9,99.7a52.69,52.69,0,0,0,5.9,50.2,50.19,50.19,0,0,0,37.9,20.8H236.2c2.4,0,5.1,0,7.5-.2A32.86,32.86,0,0,0,273.2,134.4Z" transform="translate(0.03 0)" style="fill: #fff;fill-opacity: 0.05999999865889549"/>
  </g>
  <g>
    <path d="M404.6,208.5c-1.3-15.4-14.4-27.6-29.4-27.6a26.05,26.05,0,0,0-4.2.4,66.65,66.65,0,0,0-13.7-46.2,64.56,64.56,0,0,0-38.6-23.5A62.22,62.22,0,0,0,271.4,122a65.5,65.5,0,0,0-17.2,17.6,47.38,47.38,0,0,0-3.1,5.4c-0.6.7-2.2,4.4-2.4,4.6-0.4,0-.9-0.2-1.3-0.2a46.26,46.26,0,0,0-13.9,0c-15.3,2.4-28.6,13.1-34.7,27.7a47.48,47.48,0,0,0,5.4,45.5,45.72,45.72,0,0,0,34.4,18.9H371.3c2.2,0,4.6,0,6.8-.2a29.91,29.91,0,0,0,20-10.5A31.89,31.89,0,0,0,404.6,208.5Z" transform="translate(0.03 0)" style="fill: #54c5d0"/>
    <path d="M404.6,208.5c-1.3-15.4-14.4-27.6-29.4-27.6a26.05,26.05,0,0,0-4.2.4,66.65,66.65,0,0,0-13.7-46.2,64.56,64.56,0,0,0-38.6-23.5A62.22,62.22,0,0,0,271.4,122a65.5,65.5,0,0,0-17.2,17.6,47.38,47.38,0,0,0-3.1,5.4c-0.6.7-2.2,4.4-2.4,4.6-0.4,0-.9-0.2-1.3-0.2a46.26,46.26,0,0,0-13.9,0c-15.3,2.4-28.6,13.1-34.7,27.7a47.48,47.48,0,0,0,5.4,45.5,45.72,45.72,0,0,0,34.4,18.9H371.3c2.2,0,4.6,0,6.8-.2a29.91,29.91,0,0,0,20-10.5A31.89,31.89,0,0,0,404.6,208.5Z" transform="translate(0.03 0)" style="fill: #fff;fill-opacity: 0.10000000149011612"/>
  </g>
  <g>
    <path d="M477.2,33.9A10.4,10.4,0,0,0,467,24.4c-0.5,0-1,.1-1.5.1a23.33,23.33,0,0,0-4.7-16A21.88,21.88,0,0,0,431,4a22.86,22.86,0,0,0-5.9,6.1A11.78,11.78,0,0,0,424,12a11.79,11.79,0,0,0-.8,1.6c-0.1,0-.3-0.1-0.4-0.1a12.91,12.91,0,0,0-4.8,0,15.7,15.7,0,0,0-12,9.6,16.33,16.33,0,0,0,1.9,15.7,15.52,15.52,0,0,0,11.9,6.5h45.9a19.27,19.27,0,0,0,2.4-.1,10.62,10.62,0,0,0,6.9-3.6A11.47,11.47,0,0,0,477.2,33.9Z" transform="translate(0.03 0)" style="fill: #54c5d0"/>
    <path d="M477.2,33.9A10.4,10.4,0,0,0,467,24.4c-0.5,0-1,.1-1.5.1a23.33,23.33,0,0,0-4.7-16A21.88,21.88,0,0,0,431,4a22.86,22.86,0,0,0-5.9,6.1A11.78,11.78,0,0,0,424,12a11.79,11.79,0,0,0-.8,1.6c-0.1,0-.3-0.1-0.4-0.1a12.91,12.91,0,0,0-4.8,0,15.7,15.7,0,0,0-12,9.6,16.33,16.33,0,0,0,1.9,15.7,15.52,15.52,0,0,0,11.9,6.5h45.9a19.27,19.27,0,0,0,2.4-.1,10.62,10.62,0,0,0,6.9-3.6A11.47,11.47,0,0,0,477.2,33.9Z" transform="translate(0.03 0)" style="fill: #fff;fill-opacity: 0.10000000149011612"/>
  </g>
  <g>
    <path d="M124.5,43.1A13.2,13.2,0,0,0,111.6,31a11.08,11.08,0,0,0-1.9.2,29.35,29.35,0,0,0-6-20.4A27.86,27.86,0,0,0,86.7.5,27.06,27.06,0,0,0,65.9,5.1a28.94,28.94,0,0,0-7.5,7.7A13.77,13.77,0,0,0,57,15.2c-0.2.3-1,2-1.1,2s-0.4-.1-0.6-0.1a20.78,20.78,0,0,0-6.1,0A20.31,20.31,0,0,0,33.9,29.3a20.77,20.77,0,0,0,2.4,20,19.91,19.91,0,0,0,15.1,8.3h58.4c1,0,2,0,3-.1a13.16,13.16,0,0,0,8.8-4.6A13.62,13.62,0,0,0,124.5,43.1Z" transform="translate(0.03 0)" style="fill: #54c5d0"/>
    <path d="M124.5,43.1A13.2,13.2,0,0,0,111.6,31a11.08,11.08,0,0,0-1.9.2,29.35,29.35,0,0,0-6-20.4A27.86,27.86,0,0,0,86.7.5,27.06,27.06,0,0,0,65.9,5.1a28.94,28.94,0,0,0-7.5,7.7A13.77,13.77,0,0,0,57,15.2c-0.2.3-1,2-1.1,2s-0.4-.1-0.6-0.1a20.78,20.78,0,0,0-6.1,0A20.31,20.31,0,0,0,33.9,29.3a20.77,20.77,0,0,0,2.4,20,19.91,19.91,0,0,0,15.1,8.3h58.4c1,0,2,0,3-.1a13.16,13.16,0,0,0,8.8-4.6A13.62,13.62,0,0,0,124.5,43.1Z" transform="translate(0.03 0)" style="fill: #fff;fill-opacity: 0.11999999731779099"/>
  </g>
  <g>
    <path d="M555.5,253a17.63,17.63,0,0,0-17.2-16.1,19.48,19.48,0,0,0-2.5.2,39.37,39.37,0,0,0-8-27.1,38.12,38.12,0,0,0-22.6-13.8,36.41,36.41,0,0,0-27.7,6.1,39.59,39.59,0,0,0-10.1,10.3c-0.6,1-1.3,2.1-1.8,3.1-0.3.4-1.3,2.6-1.4,2.7s-0.5-.1-0.8-0.1a27.49,27.49,0,0,0-8.1,0A26.72,26.72,0,0,0,435,234.5a27.77,27.77,0,0,0,3.1,26.6,26.56,26.56,0,0,0,20.1,11H536c1.3,0,2.7,0,4-.1a17.41,17.41,0,0,0,11.7-6.2A17.79,17.79,0,0,0,555.5,253Z" transform="translate(0.03 0)" style="fill: #54c5d0"/>
    <path d="M555.5,253a17.63,17.63,0,0,0-17.2-16.1,19.48,19.48,0,0,0-2.5.2,39.37,39.37,0,0,0-8-27.1,38.12,38.12,0,0,0-22.6-13.8,36.41,36.41,0,0,0-27.7,6.1,39.59,39.59,0,0,0-10.1,10.3c-0.6,1-1.3,2.1-1.8,3.1-0.3.4-1.3,2.6-1.4,2.7s-0.5-.1-0.8-0.1a27.49,27.49,0,0,0-8.1,0A26.72,26.72,0,0,0,435,234.5a27.77,27.77,0,0,0,3.1,26.6,26.56,26.56,0,0,0,20.1,11H536c1.3,0,2.7,0,4-.1a17.41,17.41,0,0,0,11.7-6.2A17.79,17.79,0,0,0,555.5,253Z" transform="translate(0.03 0)" style="fill: #fff;fill-opacity: 0.11999999731779099"/>
  </g>
  <g>
    <path d="M157.6,212.4c-1-11.6-10.9-20.8-22.1-20.8a16.55,16.55,0,0,0-3.2.3A50.05,50.05,0,0,0,122,157.1a48.43,48.43,0,0,0-29.1-17.7,46.9,46.9,0,0,0-35.6,7.8,50.61,50.61,0,0,0-12.9,13.2c-0.8,1.3-1.7,2.6-2.4,4-0.4.6-1.7,3.3-1.8,3.5-0.3,0-.7-0.1-1-0.1a30.27,30.27,0,0,0-10.4,0A34.56,34.56,0,0,0,2.6,188.7a36,36,0,0,0,4,34.3,34,34,0,0,0,25.9,14.2h100c1.7,0,3.5,0,5.2-.1a22.88,22.88,0,0,0,15-7.9A23.3,23.3,0,0,0,157.6,212.4Z" transform="translate(0.03 0)" style="fill: #54c5d0"/>
    <path d="M157.6,212.4c-1-11.6-10.9-20.8-22.1-20.8a16.55,16.55,0,0,0-3.2.3A50.05,50.05,0,0,0,122,157.1a48.43,48.43,0,0,0-29.1-17.7,46.9,46.9,0,0,0-35.6,7.8,50.61,50.61,0,0,0-12.9,13.2c-0.8,1.3-1.7,2.6-2.4,4-0.4.6-1.7,3.3-1.8,3.5-0.3,0-.7-0.1-1-0.1a30.27,30.27,0,0,0-10.4,0A34.56,34.56,0,0,0,2.6,188.7a36,36,0,0,0,4,34.3,34,34,0,0,0,25.9,14.2h100c1.7,0,3.5,0,5.2-.1a22.88,22.88,0,0,0,15-7.9A23.3,23.3,0,0,0,157.6,212.4Z" transform="translate(0.03 0)" style="fill: #fff;fill-opacity: 0.10000000149011612"/>
  </g>
  <g>
    <path d="M492.2,141.3c-0.9-11.2-10.5-20-21.3-20a15.53,15.53,0,0,0-3.1.3A49.32,49.32,0,0,0,457.9,88a46.91,46.91,0,0,0-28.1-17.1,45.31,45.31,0,0,0-34.4,7.5,50.74,50.74,0,0,0-12.5,12.8c-0.8,1.2-1.6,2.6-2.3,3.9a35.7,35.7,0,0,0-1.7,3.4c-0.3,0-.7-0.1-0.9-0.1a34.19,34.19,0,0,0-10.1,0,33.11,33.11,0,0,0-25.2,20.2,34.49,34.49,0,0,0,3.9,33,33,33,0,0,0,25,13.7H468c1.6,0,3.4,0,5-.1a21.73,21.73,0,0,0,14.5-7.7A22.86,22.86,0,0,0,492.2,141.3Z" transform="translate(0.03 0)" style="fill: #54c5d0"/>
    <path d="M492.2,141.3c-0.9-11.2-10.5-20-21.3-20a15.53,15.53,0,0,0-3.1.3A49.32,49.32,0,0,0,457.9,88a46.91,46.91,0,0,0-28.1-17.1,45.31,45.31,0,0,0-34.4,7.5,50.74,50.74,0,0,0-12.5,12.8c-0.8,1.2-1.6,2.6-2.3,3.9a35.7,35.7,0,0,0-1.7,3.4c-0.3,0-.7-0.1-0.9-0.1a34.19,34.19,0,0,0-10.1,0,33.11,33.11,0,0,0-25.2,20.2,34.49,34.49,0,0,0,3.9,33,33,33,0,0,0,25,13.7H468c1.6,0,3.4,0,5-.1a21.73,21.73,0,0,0,14.5-7.7A22.86,22.86,0,0,0,492.2,141.3Z" transform="translate(0.03 0)" style="fill: #fff;fill-opacity: 0.1599999964237213"/>
  </g>
</svg>
